<?xml version="1.0" encoding="UTF-8"?>
<svg width="176px" height="176px" viewBox="0 0 176 176" version="1.1" xmlns="http://www.w3.org/2000/svg" xmlns:xlink="http://www.w3.org/1999/xlink">
    <!-- Generator: Sketch 52.6 (67491) - http://www.bohemiancoding.com/sketch -->
    <title>Clinics Icon</title>
    <desc>Created with Sketch.</desc>
    <defs>
        <circle id="path-1" cx="78" cy="78" r="78"></circle>
        <filter x="-10.3%" y="-9.0%" width="120.5%" height="120.5%" filterUnits="objectBoundingBox" id="filter-2">
            <feOffset dx="0" dy="2" in="SourceAlpha" result="shadowOffsetOuter1"></feOffset>
            <feGaussianBlur stdDeviation="5" in="shadowOffsetOuter1" result="shadowBlurOuter1"></feGaussianBlur>
            <feColorMatrix values="0 0 0 0 0   0 0 0 0 0   0 0 0 0 0  0 0 0 0.2 0" type="matrix" in="shadowBlurOuter1"></feColorMatrix>
        </filter>
        <polygon id="path-3" points="0 0.090162963 65 0.090162963 65 34 0 34"></polygon>
    </defs>
    <g id="Desktop-Screens" stroke="none" stroke-width="1" fill="none" fill-rule="evenodd">
        <g id="Home_Doctors,-Clinics-and-Conditions" transform="translate(-512.000000, -286.000000)">
            <g id="Clinics" transform="translate(518.000000, 294.000000)">
                <g id="Clinics-Icon" transform="translate(4.000000, 0.000000)">
                    <g id="Oval-Copy">
                        <use fill="black" fill-opacity="1" filter="url(#filter-2)" xlink:href="#path-1"></use>
                        <use fill="#00505C" fill-rule="evenodd" xlink:href="#path-1"></use>
                    </g>
                    <g id="Clinics-Map-Icon" transform="translate(46.000000, 43.000000)">
                        <path d="M32.43675,2.51851852 C41.573,2.51851852 49.0055,9.9557037 49.0055,19.0979259 C49.0055,21.5547407 48.463,23.9448148 47.373,26.2404444 C42.87675,36.6205185 35.15425,46.4553333 32.493,49.6878519 C29.8005,46.4616296 21.96425,36.618 17.453,26.1988889 C16.39925,23.9863704 15.8655,21.5975556 15.8655,19.0979259 C15.8655,9.9557037 23.29925,2.51851852 32.43675,2.51851852 M31.568,52.4682963 C31.8055,52.7352593 32.14425,52.8888889 32.5005,52.8888889 C32.8605,52.909037 33.20175,52.7327407 33.43925,52.4607407 C33.86925,51.9683704 44.03675,40.2408889 49.64675,27.2868889 C50.8805,24.689037 51.5055,21.9337778 51.5055,19.0979259 C51.5055,8.56674074 42.95175,0 32.43675,0 C21.9205,0 13.3655,8.56674074 13.3655,19.0979259 C13.3655,21.9778519 13.98175,24.7331111 15.17925,27.2478519 C20.80675,40.2446667 31.1305,51.9746667 31.568,52.4682963" id="Fill-1" fill="#FFFFFF"></path>
                        <path d="M32.435625,12.2907481 C36.045625,12.2907481 38.981875,15.2487481 38.981875,18.8854889 C38.981875,22.5222296 36.045625,25.4802296 32.435625,25.4802296 C28.825625,25.4802296 25.889375,22.5222296 25.889375,18.8854889 C25.889375,15.2487481 28.825625,12.2907481 32.435625,12.2907481 M32.435625,27.9987481 C37.424375,27.9987481 41.481875,23.9111926 41.481875,18.8854889 C41.481875,13.8610444 37.424375,9.77222963 32.435625,9.77222963 C27.448125,9.77222963 23.389375,13.8610444 23.389375,18.8854889 C23.389375,23.9111926 27.448125,27.9987481 32.435625,27.9987481" id="Fill-3" fill="#FFFFFF"></path>
                        <g id="Group-7" transform="translate(0.000000, 34.000000)">
                            <mask id="mask-4" fill="white">
                                <use xlink:href="#path-3"></use>
                            </mask>
                            <g id="Clip-6"></g>
                            <path d="M64.96,32.4229037 L57.46,3.45994074 C57.36,3.07334815 57.0825,2.75727407 56.715,2.60868148 L50.465,0.090162963 L49.53625,2.42860741 L55.2,4.71038519 L61.845,30.3740889 L49.30875,24.0589037 C48.97,23.8876444 48.57125,23.8826074 48.22625,24.0412741 L32.5,31.3537926 L16.77375,24.0412741 C16.43,23.8826074 16.03125,23.8876444 15.69125,24.0589037 L3.155,30.3740889 L9.80125,4.71038519 L15.465,2.42860741 L14.53625,0.090162963 L8.28625,2.60868148 C7.9175,2.75727407 7.64125,3.07334815 7.54,3.45994074 L0.04,32.4229037 C-0.08375,32.9014222 0.0825,33.4076444 0.4625,33.7186815 C0.845,34.0297185 1.37125,34.0876444 1.80875,33.8672741 L16.27125,26.5824593 L31.97625,33.8849037 C32.30875,34.0385333 32.6925,34.0385333 33.02375,33.8849037 L48.72875,26.5824593 L63.19125,33.8672741 C63.36875,33.9566815 63.56,33.9994963 63.75,33.9994963 C64.03125,33.9994963 64.31,33.9050519 64.5375,33.7186815 C64.91875,33.4076444 65.08375,32.9014222 64.96,32.4229037" id="Fill-5" fill="#FFFFFF" mask="url(#mask-4)"></path>
                        </g>
                    </g>
                </g>
            </g>
        </g>
    </g>
</svg>