<?xml version="1.0" encoding="UTF-8"?>
<svg width="176px" height="176px" viewBox="0 0 176 176" version="1.1" xmlns="http://www.w3.org/2000/svg" xmlns:xlink="http://www.w3.org/1999/xlink">
    <!-- Generator: Sketch 52.6 (67491) - http://www.bohemiancoding.com/sketch -->
    <title>Conditions Icon</title>
    <desc>Created with Sketch.</desc>
    <defs>
        <circle id="path-1" cx="78" cy="78" r="78"></circle>
        <filter x="-10.3%" y="-9.0%" width="120.5%" height="120.5%" filterUnits="objectBoundingBox" id="filter-2">
            <feOffset dx="0" dy="2" in="SourceAlpha" result="shadowOffsetOuter1"></feOffset>
            <feGaussianBlur stdDeviation="5" in="shadowOffsetOuter1" result="shadowBlurOuter1"></feGaussianBlur>
            <feColorMatrix values="0 0 0 0 0   0 0 0 0 0   0 0 0 0 0  0 0 0 0.2 0" type="matrix" in="shadowBlurOuter1"></feColorMatrix>
        </filter>
    </defs>
    <g id="Desktop-Screens" stroke="none" stroke-width="1" fill="none" fill-rule="evenodd">
        <g id="Home_Doctors,-Clinics-and-Conditions" transform="translate(-747.000000, -286.000000)">
            <g id="Conditions" transform="translate(754.000000, 294.000000)">
                <g id="Conditions-Icon" transform="translate(3.000000, 0.000000)">
                    <g id="Oval-Copy-2">
                        <use fill="black" fill-opacity="1" filter="url(#filter-2)" xlink:href="#path-1"></use>
                        <use fill="#009B76" fill-rule="evenodd" xlink:href="#path-1"></use>
                    </g>
                    <g id="Condition-Book-Icon" transform="translate(40.000000, 42.000000)" fill="#FFFFFF">
                        <path d="M74.1481481,60 C74.1481481,62.2053333 72.2288519,64 69.8703704,64 L45.6296296,64 C43.3567037,64 41.2506111,65.116 39.9259259,66.7733333 L39.9259259,65.3333333 C39.9259259,63.484 41.7953148,61.3333333 44.2037037,61.3333333 L64.1666667,61.3333333 C68.0979444,61.3333333 71.2962963,58.3426667 71.2962963,54.6666667 L71.2962963,8.24533333 C72.9532222,8.79866667 74.1481481,10.264 74.1481481,12 L74.1481481,60 Z M37.0740741,66.7733333 C35.7493889,65.116 33.6432963,64 31.3703704,64 L7.12962963,64 C4.77114815,64 2.85185185,62.2053333 2.85185185,60 L2.85185185,12 C2.85185185,10.264 4.04677778,8.79866667 5.7037037,8.24533333 L5.7037037,54.6666667 C5.7037037,58.3426667 8.90205556,61.3333333 12.8333333,61.3333333 L32.7962963,61.3333333 C35.2046852,61.3333333 37.0740741,63.484 37.0740741,65.3333333 L37.0740741,66.7733333 Z M8.55555556,6.66666667 C8.55555556,4.46133333 10.4748519,2.66666667 12.8333333,2.66666667 L32.7962963,2.66666667 C35.1547778,2.66666667 37.0740741,4.46133333 37.0740741,6.66666667 L37.0740741,60.0813333 C35.863463,59.2013333 34.3705185,58.6666667 32.7962963,58.6666667 L12.8333333,58.6666667 C10.4748519,58.6666667 8.55555556,56.872 8.55555556,54.6666667 L8.55555556,6.66666667 Z M44.2037037,2.66666667 L64.1666667,2.66666667 C66.5251481,2.66666667 68.4444444,4.46133333 68.4444444,6.66666667 L68.4444444,54.6666667 C68.4444444,56.872 66.5251481,58.6666667 64.1666667,58.6666667 L44.2037037,58.6666667 C42.6294815,58.6666667 41.136537,59.2013333 39.9259259,60.0813333 L39.9259259,6.66666667 C39.9259259,4.46133333 41.8452222,2.66666667 44.2037037,2.66666667 Z M71.1651111,5.456 C70.5533889,2.35733333 67.6544815,0 64.1666667,0 L44.2037037,0 C41.8637593,0 39.8004444,1.07466667 38.5,2.708 C37.1995556,1.07466667 35.1362407,0 32.7962963,0 L12.8333333,0 C9.34551852,0 6.44661111,2.35733333 5.83488889,5.456 C2.52103704,6.028 0,8.73866667 0,12 L0,60 C0,63.676 3.19835185,66.6666667 7.12962963,66.6666667 L31.3703704,66.6666667 C33.7787593,66.6666667 35.6481481,68.8173333 35.6481481,70.6666667 C35.6481481,71.4026667 36.286963,72 37.0740741,72 L39.9259259,72 C40.713037,72 41.3518519,71.4026667 41.3518519,70.6666667 C41.3518519,68.8173333 43.2212407,66.6666667 45.6296296,66.6666667 L69.8703704,66.6666667 C73.8016481,66.6666667 77,63.676 77,60 L77,12 C77,8.73866667 74.478963,6.028 71.1651111,5.456 Z" id="Fill-1"></path>
                    </g>
                </g>
            </g>
        </g>
    </g>
</svg>