<?xml version="1.0" encoding="UTF-8"?>
<svg width="176px" height="176px" viewBox="0 0 176 176" version="1.1" xmlns="http://www.w3.org/2000/svg" xmlns:xlink="http://www.w3.org/1999/xlink">
    <!-- Generator: Sketch 52.6 (67491) - http://www.bohemiancoding.com/sketch -->
    <title>Doctors Icon</title>
    <desc>Created with Sketch.</desc>
    <defs>
        <circle id="path-1" cx="78" cy="78" r="78"></circle>
        <filter x="-10.3%" y="-9.0%" width="120.5%" height="120.5%" filterUnits="objectBoundingBox" id="filter-2">
            <feOffset dx="0" dy="2" in="SourceAlpha" result="shadowOffsetOuter1"></feOffset>
            <feGaussianBlur stdDeviation="5" in="shadowOffsetOuter1" result="shadowBlurOuter1"></feGaussianBlur>
            <feColorMatrix values="0 0 0 0 0   0 0 0 0 0   0 0 0 0 0  0 0 0 0.2 0" type="matrix" in="shadowBlurOuter1"></feColorMatrix>
        </filter>
    </defs>
    <g id="Desktop-Screens" stroke="none" stroke-width="1" fill="none" fill-rule="evenodd">
        <g id="Home_Doctors,-Clinics-and-Conditions" transform="translate(-276.000000, -286.000000)">
            <g id="Doctors" transform="translate(282.000000, 294.000000)">
                <g id="Doctors-Icon" transform="translate(4.000000, 0.000000)">
                    <g id="Oval-Copy-7">
                        <use fill="black" fill-opacity="1" filter="url(#filter-2)" xlink:href="#path-1"></use>
                        <use fill="#117C91" fill-rule="evenodd" xlink:href="#path-1"></use>
                    </g>
                    <g id="doctor" transform="translate(48.000000, 42.000000)" fill="#FFFFFF">
                        <g id="stethoscope-01">
                            <path d="M18.585,38.7473684 C8.49511031,38.7369474 0.315316948,30.3394248 0.295,19.9705263 L0.295,1.62947368 C0.295,0.834183644 0.922360994,0.189473684 1.69625,0.189473684 L8.518125,0.189473684 C8.88808665,0.189439888 9.24263368,0.341755637 9.50249791,0.612366789 C9.76236213,0.882977941 9.90587032,1.24931496 9.9009375,1.62947368 C9.9009375,2.41429938 9.28183126,3.05052632 8.518125,3.05052632 L3.0790625,3.05052632 L3.0790625,19.9705263 C3.0790625,28.7710385 10.0213072,35.9052632 18.585,35.9052632 C27.1486928,35.9052632 34.0909375,28.7710385 34.0909375,19.9705263 L34.0909375,3.05052632 L28.651875,3.05052632 C28.1162971,3.11397372 27.592795,2.85603176 27.3055723,2.38717088 C27.0183495,1.91831 27.0183495,1.32169 27.3055723,0.852829121 C27.592795,0.38396824 28.1162971,0.126026281 28.651875,0.189473684 L35.47375,0.189473684 C35.8468977,0.184325781 36.2062291,0.334385975 36.4701082,0.605562329 C36.7339873,0.876738683 36.8800094,1.24600696 36.875,1.62947368 L36.875,19.9705263 C36.8648245,30.343754 28.6790922,38.7473737 18.585,38.7473684 Z" id="Path"></path>
                            <path d="M35.03125,71.5642105 C25.2019145,71.5537538 17.2390572,63.3622128 17.2390625,53.2610526 L17.2390625,37.3263158 C17.2390625,36.5414901 17.8581687,35.9052632 18.621875,35.9052632 C19.3855813,35.9052632 20.0046875,36.5414901 20.0046875,37.3263158 L20.0046875,53.2610526 C20.0046875,61.7894919 26.7323087,68.7031579 35.03125,68.7031579 C43.3301913,68.7031579 50.0578125,61.7894919 50.0578125,53.2610526 L50.0578125,40.8315789 C49.9960724,40.2811903 50.2470733,39.7432113 50.7033172,39.4480457 C51.1595612,39.1528801 51.7401263,39.1528801 52.1963703,39.4480457 C52.6526142,39.7432113 52.9036151,40.2811903 52.841875,40.8315789 L52.841875,53.2610526 C52.8317124,63.3652785 44.863574,71.5537669 35.03125,71.5642105 Z" id="Path"></path>
                            <path d="M51.4221875,42.2526316 C48.4765648,42.2526316 45.8209871,40.4291622 44.6937461,37.6325044 C43.5665051,34.8358466 44.1895916,31.6167543 46.2724614,29.476285 C48.3553312,27.3358158 51.4877987,26.6954985 54.2091992,27.8539121 C56.9305997,29.0123257 58.705,31.7413405 58.705,34.7684211 C58.6552873,38.8804894 55.4236012,42.2015441 51.4221875,42.2526316 Z M51.4221875,30.1263158 C49.5934964,30.1186453 47.9407157,31.2447816 47.2357279,32.9787962 C46.5307401,34.7128107 46.9126472,36.7125627 48.2030908,38.044127 C49.4935344,39.3756914 51.4378954,39.7763353 53.1281173,39.05895 C54.8183393,38.3415646 55.9209223,36.6476982 55.9209375,34.7684211 C55.9209582,32.2120383 53.909758,30.13675 51.4221875,30.1263158 Z" id="Shape" fill-rule="nonzero"></path>
                        </g>
                    </g>
                </g>
            </g>
        </g>
    </g>
</svg>