<svg id="Layer_1" data-name="Layer 1" xmlns="http://www.w3.org/2000/svg" viewBox="0 0 48 48"><defs><style>.cls-1,.cls-2{fill:none;stroke:#000;stroke-linecap:round;}.cls-1{stroke-linejoin:round;stroke-width:2px;}.cls-2{stroke-miterlimit:10;stroke-width:3px;}</style></defs><title>graphic</title><path class="cls-1" d="M41.06,38H6.94A2.94,2.94,0,0,1,4,35.06V13.94A2.94,2.94,0,0,1,6.94,11H41.06A2.94,2.94,0,0,1,44,13.94V35.06A2.94,2.94,0,0,1,41.06,38Z"/><line class="cls-1" x1="44" y1="32" x2="4" y2="32"/><polyline class="cls-1" points="10 23 15.43 23 18.29 18 19.71 28 24 23 30 23"/><line class="cls-1" x1="10" y1="35" x2="13" y2="35"/><line class="cls-1" x1="35" y1="35" x2="38" y2="35"/><polyline class="cls-2" points="37 17 36 18 35 17"/><rect class="cls-1" x="-496" y="-292" width="700" height="700"/></svg>