<svg xmlns="http://www.w3.org/2000/svg" viewBox="0 0 32 32"><title>microscope</title><g id="microscope"><path d="M27.5,26.37h-1v-3a1,1,0,0,0-1-1h-7a1,1,0,0,0-1,1h-7a.81.81,0,0,0-.31.06,3.65,3.65,0,0,0-.67-.5c.15-7.35,3.89-9.7,5.49-10.35l.54,1a1,1,0,0,0,.59.48.93.93,0,0,0,.29.05A1,1,0,0,0,16.9,14l4.42-2.34a1,1,0,0,0,.41-1.35L18.45,4.13a1,1,0,0,0-.59-.48,1,1,0,0,0-.76.07l-.22.11L16,2.17a1,1,0,0,0-1.36-.42L12.17,3.06a1,1,0,0,0-.48.59,1,1,0,0,0,.07.76l.89,1.68a1,1,0,0,0-.38,1.32l.17.33c-2.08,1-7.94,4.91-7.94,15.63a1.07,1.07,0,0,0,.06.3,4,4,0,1,0,6.38,4.7H27.5a1,1,0,0,0,0-2Zm-3-2v2h-5v-2Zm-5-14-2.65,1.41L14.5,7.36,17.15,6ZM14.7,4l.28.52-.71.37L14,4.36ZM13.38,9.51l.69,1.3a9.85,9.85,0,0,0-2.76,1.87c-1.64,1.57-3.57,4.51-3.79,9.69h0a4,4,0,0,0-1,.13C6.84,13.43,11.82,10.27,13.38,9.51ZM7.5,28.37a2,2,0,1,1,2-2A2,2,0,0,1,7.5,28.37Zm3.86-3H17.5v1h-6A4.09,4.09,0,0,0,11.36,25.37Zm-2.86,1a1,1,0,1,1-1-1A1,1,0,0,1,8.5,26.37Z"/></g></svg>